ply
format ascii 1.0
element vertex 132
property float x
property float y
property float z
property uchar red
property uchar green
property uchar blue
end_header
1703.73 -211.37 -15.00 255 0 0
1709.64 -188.73 -15.00 255 0 0
1723.76 -216.60 -15.00 255 0 0
1729.67 -193.96 -15.00 255 0 0
1703.73 -211.37 14.00 255 0 0
1709.64 -188.73 14.00 255 0 0
1723.76 -216.60 14.00 255 0 0
1729.67 -193.96 14.00 255 0 0
1703.73 -211.37 83.00 255 0 0
1709.64 -188.73 83.00 255 0 0
1723.76 -216.60 83.00 255 0 0
1729.67 -193.96 83.00 255 0 0
1703.73 -211.37 91.00 255 0 0
1709.64 -188.73 91.00 255 0 0
1723.76 -216.60 91.00 255 0 0
1729.67 -193.96 91.00 255 0 0
1703.73 -211.37 125.00 255 0 0
1709.64 -188.73 125.00 255 0 0
1723.76 -216.60 125.00 255 0 0
1729.67 -193.96 125.00 255 0 0
1743.56 -179.48 -15.00 255 0 0
1760.15 -195.98 -15.00 255 0 0
1728.96 -194.15 -15.00 255 0 0
1745.55 -210.66 -15.00 255 0 0
1743.56 -179.48 14.00 255 0 0
1760.15 -195.98 14.00 255 0 0
1728.96 -194.15 14.00 255 0 0
1745.55 -210.66 14.00 255 0 0
1743.56 -179.48 83.00 255 0 0
1760.15 -195.98 83.00 255 0 0
1728.96 -194.15 83.00 255 0 0
1745.55 -210.66 83.00 255 0 0
1743.56 -179.48 91.00 255 0 0
1760.15 -195.98 91.00 255 0 0
1728.96 -194.15 91.00 255 0 0
1745.55 -210.66 91.00 255 0 0
1743.56 -179.48 125.00 255 0 0
1760.15 -195.98 125.00 255 0 0
1728.96 -194.15 125.00 255 0 0
1745.55 -210.66 125.00 255 0 0
1751.18 -229.86 -15.00 255 0 0
1728.59 -235.99 -15.00 255 0 0
1745.75 -209.88 -15.00 255 0 0
1723.17 -216.02 -15.00 255 0 0
1751.18 -229.86 14.00 255 0 0
1728.59 -235.99 14.00 255 0 0
1745.75 -209.88 14.00 255 0 0
1723.17 -216.02 14.00 255 0 0
1751.18 -229.86 83.00 255 0 0
1728.59 -235.99 83.00 255 0 0
1745.75 -209.88 83.00 255 0 0
1723.17 -216.02 83.00 255 0 0
1751.18 -229.86 91.00 255 0 0
1728.59 -235.99 91.00 255 0 0
1745.75 -209.88 91.00 255 0 0
1723.17 -216.02 91.00 255 0 0
1751.18 -229.86 125.00 255 0 0
1728.59 -235.99 125.00 255 0 0
1745.75 -209.88 125.00 255 0 0
1723.17 -216.02 125.00 255 0 0
1732.81 -198.77 -15.00 255 0 0
1738.54 -201.14 -15.00 255 0 0
1740.91 -206.87 -15.00 255 0 0
1738.54 -212.60 -15.00 255 0 0
1732.81 -214.97 -15.00 255 0 0
1727.08 -212.60 -15.00 255 0 0
1724.71 -206.87 -15.00 255 0 0
1727.08 -201.14 -15.00 255 0 0
1732.81 -198.77 14.00 255 0 0
1738.54 -201.14 14.00 255 0 0
1740.91 -206.87 14.00 255 0 0
1738.54 -212.60 14.00 255 0 0
1732.81 -214.97 14.00 255 0 0
1727.08 -212.60 14.00 255 0 0
1724.71 -206.87 14.00 255 0 0
1727.08 -201.14 14.00 255 0 0
1732.81 -198.77 83.00 255 0 0
1738.54 -201.14 83.00 255 0 0
1740.91 -206.87 83.00 255 0 0
1738.54 -212.60 83.00 255 0 0
1732.81 -214.97 83.00 255 0 0
1727.08 -212.60 83.00 255 0 0
1724.71 -206.87 83.00 255 0 0
1727.08 -201.14 83.00 255 0 0
1732.81 -198.77 91.00 255 0 0
1738.54 -201.14 91.00 255 0 0
1740.91 -206.87 91.00 255 0 0
1738.54 -212.60 91.00 255 0 0
1732.81 -214.97 91.00 255 0 0
1727.08 -212.60 91.00 255 0 0
1724.71 -206.87 91.00 255 0 0
1727.08 -201.14 91.00 255 0 0
1732.81 -198.77 125.00 255 0 0
1738.54 -201.14 125.00 255 0 0
1740.91 -206.87 125.00 255 0 0
1738.54 -212.60 125.00 255 0 0
1732.81 -214.97 125.00 255 0 0
1727.08 -212.60 125.00 255 0 0
1724.71 -206.87 125.00 255 0 0
1727.08 -201.14 125.00 255 0 0
1732.81 -198.77 137.00 255 0 0
1738.54 -201.14 137.00 255 0 0
1740.91 -206.87 137.00 255 0 0
1738.54 -212.60 137.00 255 0 0
1732.81 -214.97 137.00 255 0 0
1727.08 -212.60 137.00 255 0 0
1724.71 -206.87 137.00 255 0 0
1727.08 -201.14 137.00 255 0 0
1709.88 -200.88 125.00 255 0 0
1716.78 -196.84 125.00 255 0 0
1713.93 -207.79 125.00 255 0 0
1720.83 -203.74 125.00 255 0 0
1709.88 -200.88 142.00 255 0 0
1716.78 -196.84 142.00 255 0 0
1713.93 -207.79 142.00 255 0 0
1720.83 -203.74 142.00 255 0 0
1749.52 -190.07 125.00 255 0 0
1749.54 -198.07 125.00 255 0 0
1741.52 -190.09 125.00 255 0 0
1741.54 -198.09 125.00 255 0 0
1749.52 -190.07 142.00 255 0 0
1749.54 -198.07 142.00 255 0 0
1741.52 -190.09 142.00 255 0 0
1741.54 -198.09 142.00 255 0 0
1739.02 -229.74 125.00 255 0 0
1732.08 -225.76 125.00 255 0 0
1743.00 -222.80 125.00 255 0 0
1736.05 -218.82 125.00 255 0 0
1739.02 -229.74 142.00 255 0 0
1732.08 -225.76 142.00 255 0 0
1743.00 -222.80 142.00 255 0 0
1736.05 -218.82 142.00 255 0 0
